<?xml version="1.0" standalone="no"?>
<!DOCTYPE svg PUBLIC "-//W3C//DTD SVG 20010904//EN"
 "http://www.w3.org/TR/2001/REC-SVG-20010904/DTD/svg10.dtd">
<svg version="1.0" xmlns="http://www.w3.org/2000/svg"
 width="327.000000pt" height="75.000000pt" viewBox="0 0 327.000000 75.000000"
 preserveAspectRatio="xMidYMid meet">
<metadata>
Created by potrace 1.13, written by Peter Selinger 2001-2015
</metadata>
<g transform="translate(0.000000,75.000000) scale(0.100000,-0.100000)"
fill="#000000" stroke="none">
<path d="M159 637 c-51 -27 -79 -76 -79 -137 0 -58 26 -107 79 -147 l43 -33
-50 0 c-30 0 -54 -5 -61 -14 -8 -9 -11 -48 -9 -112 l3 -99 137 -2 c126 -1 140
0 170 21 49 33 78 82 78 133 0 62 -20 103 -75 151 l-48 42 40 0 c22 0 45 6 50
13 6 6 13 51 17 98 5 66 4 88 -7 97 -8 7 -59 11 -130 11 -101 0 -122 -3 -158
-22z m136 -11 c29 -13 34 -12 39 0 4 11 18 14 48 12 l43 -3 0 -80 0 -80 -46
-3 c-40 -3 -48 0 -63 23 -23 36 -71 32 -71 -5 0 -20 13 -33 70 -67 83 -50 110
-79 125 -135 15 -53 -8 -118 -53 -150 -38 -27 -113 -30 -151 -5 -25 17 -26 17
-26 -3 0 -18 -6 -20 -55 -20 l-55 0 0 89 c0 84 1 89 23 95 52 14 81 6 102 -27
16 -24 28 -32 50 -32 24 0 31 5 33 23 5 31 -10 47 -78 83 -75 40 -109 77 -121
129 -17 76 13 129 88 156 49 17 57 17 98 0z"/>
<path d="M1295 623 c-44 -7 -55 -21 -55 -69 0 -59 15 -94 40 -94 19 0 20 -6
20 -100 0 -90 -2 -100 -18 -100 -10 0 -22 -4 -28 -10 -5 -5 -19 -7 -31 -4 -21
6 -23 12 -25 128 l-3 121 -50 -1 c-75 -2 -354 -5 -402 -4 l-42 0 -3 53 -3 52
-60 -4 c-84 -5 -105 -15 -105 -48 0 -35 -10 -50 -35 -54 -18 -4 -20 -12 -20
-74 0 -64 2 -70 21 -73 19 -3 22 -11 26 -87 8 -128 44 -175 134 -175 54 0 148
47 152 77 2 12 -9 45 -23 73 -26 50 -27 52 -61 46 -34 -7 -34 -6 -34 29 0 34
1 35 38 35 21 0 43 5 48 10 6 6 18 8 27 4 13 -5 17 -19 17 -64 0 -98 31 -158
97 -186 39 -17 107 -18 135 -3 14 8 23 8 31 0 14 -14 139 -15 153 -1 6 6 22 6
44 0 57 -16 265 -13 308 6 46 19 87 57 102 95 15 35 26 37 34 6 32 -130 263
-160 346 -46 l28 39 9 -47 8 -48 130 0 130 0 0 60 c0 59 -1 60 -32 70 -28 8
-33 14 -33 40 0 17 6 40 14 51 13 16 18 17 33 6 40 -27 46 -26 83 16 41 48 47
51 52 20 2 -15 11 -24 26 -26 20 -3 22 -9 22 -57 0 -45 -3 -53 -21 -58 -18 -5
-20 -12 -17 -64 l3 -58 335 0 335 0 3 55 c2 38 -1 57 -11 65 -9 7 -16 38 -19
93 -5 88 -18 116 -71 156 -36 27 -130 33 -180 13 -32 -14 -40 -14 -64 -2 -33
17 -116 20 -144 4 -16 -8 -23 -7 -33 7 -12 15 -19 16 -81 4 -37 -7 -75 -20
-84 -29 -15 -15 -19 -15 -51 7 -30 21 -43 23 -98 19 -36 -3 -65 -1 -68 5 -8
12 -127 2 -155 -13 -33 -17 -19 -129 16 -129 12 0 15 -13 15 -57 0 -50 -3 -59
-23 -68 -22 -11 -22 -10 -22 65 0 67 -3 82 -28 119 -35 53 -92 80 -167 81 -68
0 -136 -31 -166 -76 l-20 -32 -12 55 c-15 74 -45 118 -100 151 -44 25 -56 27
-167 28 -66 1 -133 0 -150 -3z m281 -38 c21 -9 47 -23 58 -33 75 -67 82 -298
10 -375 -55 -59 -122 -74 -278 -62 l-96 7 0 54 c0 49 2 54 25 60 25 6 25 7 25
125 0 119 0 119 -24 119 -21 0 -24 6 -30 51 -4 28 -5 54 -2 56 25 25 251 24
312 -2z m-896 -65 l0 -50 40 0 c47 0 55 -13 46 -65 -7 -34 -8 -35 -52 -35
l-45 0 3 -62 3 -63 36 2 c33 2 37 -1 57 -43 l22 -44 -33 -20 c-43 -27 -103
-43 -130 -34 -55 17 -74 56 -83 173 -7 87 -8 91 -30 91 -21 0 -24 5 -24 34 0
49 9 66 35 66 21 0 24 6 27 42 3 39 6 44 33 49 17 4 45 7 63 8 32 1 32 1 32
-49z m1585 -51 c4 -11 12 -18 18 -15 65 27 84 28 130 8 26 -12 47 -27 47 -34
0 -7 -14 -30 -31 -51 -25 -30 -34 -35 -49 -27 -55 29 -90 0 -90 -75 0 -54 0
-54 35 -61 34 -6 35 -8 35 -50 l0 -44 -115 0 -115 0 0 44 c0 35 4 45 20 49 18
5 20 14 20 91 0 79 -2 86 -20 86 -12 0 -20 7 -20 18 0 9 -3 27 -6 39 -5 19 0
22 48 31 79 14 86 14 93 -9z m390 -28 c3 -2 14 4 26 15 29 26 120 24 157 -3
27 -20 27 -20 54 0 18 14 43 20 80 20 108 1 153 -53 151 -185 0 -70 1 -78 18
-78 16 0 19 -8 19 -45 l0 -46 -97 3 -98 3 -3 38 c-2 26 1 39 12 43 12 5 16 21
16 68 0 66 -11 86 -45 86 -35 0 -45 -20 -45 -87 0 -49 3 -63 15 -63 11 0 15
-12 15 -45 l0 -45 -90 0 -90 0 0 45 c0 33 4 45 15 45 12 0 15 14 15 63 0 67
-10 87 -45 87 -35 0 -45 -20 -45 -87 0 -47 4 -65 15 -69 10 -4 15 -20 15 -45
l0 -40 -97 3 -98 3 -3 43 c-3 37 -1 42 17 42 19 0 21 6 21 75 0 72 -1 75 -24
75 -21 0 -24 6 -29 48 -3 26 -4 48 -3 49 2 2 31 9 67 16 61 13 64 12 72 -7 4
-11 10 -22 12 -25z m-1455 -214 c17 -4 20 -14 20 -55 0 -55 -9 -62 -82 -62
-28 0 -38 5 -43 20 -6 19 -7 19 -32 3 -32 -21 -108 -22 -149 0 -42 22 -65 73
-71 163 -4 53 -10 74 -19 74 -10 0 -14 15 -14 50 l0 50 80 0 80 0 0 -103 c0
-108 7 -127 45 -127 33 0 45 20 45 72 0 41 -3 48 -19 48 -16 0 -20 9 -23 50
l-3 50 40 5 c22 3 58 6 80 7 l40 3 3 -121 c2 -112 4 -122 22 -127z m805 224
c63 -36 95 -123 76 -205 -20 -84 -83 -131 -172 -130 -127 2 -197 99 -168 233
12 56 58 106 107 117 15 3 32 7 37 10 20 7 90 -7 120 -25z"/>
<path d="M1440 355 l0 -125 34 0 c54 0 86 45 86 121 0 63 -18 112 -45 123 -9
3 -30 6 -46 6 l-29 0 0 -125z"/>
</g>
</svg>
